solid OpenSCAD_Model
  facet normal 0 1 -0
    outer loop
      vertex 71.5 71.5 0
      vertex -71.5 71.5 2
      vertex 71.5 71.5 2
    endloop
  endfacet
  facet normal 0 1 0
    outer loop
      vertex -71.5 71.5 2
      vertex 71.5 71.5 0
      vertex -71.5 71.5 0
    endloop
  endfacet
  facet normal 0 0 -1
    outer loop
      vertex -71.5 -71.5 0
      vertex 71.5 71.5 0
      vertex 71.5 -71.5 0
    endloop
  endfacet
  facet normal -0 0 -1
    outer loop
      vertex 71.5 71.5 0
      vertex -71.5 -71.5 0
      vertex -71.5 71.5 0
    endloop
  endfacet
  facet normal -1 0 0
    outer loop
      vertex -71.5 -71.5 0
      vertex -71.5 71.5 2
      vertex -71.5 71.5 0
    endloop
  endfacet
  facet normal -1 -0 0
    outer loop
      vertex -71.5 71.5 2
      vertex -71.5 -71.5 0
      vertex -71.5 -71.5 2
    endloop
  endfacet
  facet normal -0 0 1
    outer loop
      vertex -71.5 71.5 2
      vertex 71.5 -71.5 2
      vertex 71.5 71.5 2
    endloop
  endfacet
  facet normal 0 0 1
    outer loop
      vertex 71.5 -71.5 2
      vertex -71.5 71.5 2
      vertex -71.5 -71.5 2
    endloop
  endfacet
  facet normal 1 -0 0
    outer loop
      vertex 71.5 -71.5 2
      vertex 71.5 71.5 0
      vertex 71.5 71.5 2
    endloop
  endfacet
  facet normal 1 0 0
    outer loop
      vertex 71.5 71.5 0
      vertex 71.5 -71.5 2
      vertex 71.5 -71.5 0
    endloop
  endfacet
  facet normal 0 -1 0
    outer loop
      vertex -71.5 -71.5 0
      vertex 71.5 -71.5 2
      vertex -71.5 -71.5 2
    endloop
  endfacet
  facet normal 0 -1 -0
    outer loop
      vertex 71.5 -71.5 2
      vertex -71.5 -71.5 0
      vertex 71.5 -71.5 0
    endloop
  endfacet
endsolid OpenSCAD_Model
